<svg xmlns="http://www.w3.org/2000/svg" xmlns:xlink="http://www.w3.org/1999/xlink" width="1300" zoomAndPan="magnify" viewBox="0 0 974.88 974.999993" height="1300" preserveAspectRatio="xMidYMid meet" version="1.0"><defs><g/><clipPath id="dd71d671e1"><path d="M 0 0.0585938 L 974.761719 0.0585938 L 974.761719 974.9375 L 0 974.9375 Z M 0 0.0585938 " clip-rule="nonzero"/></clipPath><clipPath id="6c2b6736e0"><rect x="0" width="601" y="0" height="196"/></clipPath></defs><g clip-path="url(#dd71d671e1)"><path fill="#ffffff" d="M 0 0.0585938 L 974.878906 0.0585938 L 974.878906 974.941406 L 0 974.941406 Z M 0 0.0585938 " fill-opacity="1" fill-rule="nonzero"/><path fill="#000000" d="M 0 0.0585938 L 974.878906 0.0585938 L 974.878906 974.941406 L 0 974.941406 Z M 0 0.0585938 " fill-opacity="1" fill-rule="nonzero"/></g><g transform="matrix(1, 0, 0, 1, 183, 390)"><g clip-path="url(#6c2b6736e0)"><g fill="#ffffff" fill-opacity="1"><g transform="translate(1.767617, 139.885838)"><g><path d="M 91.984375 -70.234375 C 99.492188 -61.992188 103.25 -51.929688 103.25 -40.046875 C 103.25 -28.160156 99.492188 -18.125 91.984375 -9.9375 C 84.472656 -1.75 74.929688 2.34375 63.359375 2.34375 C 52.722656 2.34375 43.960938 -1.460938 37.078125 -9.078125 L 36.765625 -9.078125 L 36.765625 0 L 9.390625 0 L 9.390625 -134.53125 L 37.078125 -134.53125 L 37.078125 -72.59375 C 43.960938 -79.257812 52.722656 -82.59375 63.359375 -82.59375 C 74.929688 -82.59375 84.472656 -78.472656 91.984375 -70.234375 Z M 68.671875 -26.515625 C 72.117188 -30.003906 73.84375 -34.515625 73.84375 -40.046875 C 73.84375 -45.578125 72.039062 -50.113281 68.4375 -53.65625 C 64.84375 -57.207031 60.382812 -58.984375 55.0625 -58.984375 C 49.851562 -58.984375 45.445312 -57.207031 41.84375 -53.65625 C 38.25 -50.113281 36.453125 -45.578125 36.453125 -40.046875 C 36.453125 -34.617188 38.195312 -30.132812 41.6875 -26.59375 C 45.1875 -23.050781 49.644531 -21.28125 55.0625 -21.28125 C 60.695312 -21.28125 65.234375 -23.023438 68.671875 -26.515625 Z M 68.671875 -26.515625 "/></g></g></g><g fill="#ffffff" fill-opacity="1"><g transform="translate(93.886297, 139.885838)"><g><path d="M 90.578125 -36.296875 L 32.375 -36.296875 C 32.375 -30.660156 34.195312 -26.488281 37.84375 -23.78125 C 41.5 -21.070312 45.46875 -19.71875 49.75 -19.71875 C 54.226562 -19.71875 57.769531 -20.316406 60.375 -21.515625 C 62.988281 -22.710938 65.960938 -25.082031 69.296875 -28.625 L 89.328125 -18.609375 C 80.984375 -4.640625 67.113281 2.34375 47.71875 2.34375 C 35.613281 2.34375 25.234375 -1.800781 16.578125 -10.09375 C 7.921875 -18.382812 3.59375 -28.367188 3.59375 -40.046875 C 3.59375 -51.722656 7.921875 -61.734375 16.578125 -70.078125 C 25.234375 -78.421875 35.613281 -82.59375 47.71875 -82.59375 C 60.4375 -82.59375 70.785156 -78.914062 78.765625 -71.5625 C 86.742188 -64.21875 90.734375 -53.710938 90.734375 -40.046875 C 90.734375 -38.171875 90.679688 -36.921875 90.578125 -36.296875 Z M 33.171875 -51.625 L 63.671875 -51.625 C 63.046875 -55.789062 61.398438 -58.992188 58.734375 -61.234375 C 56.078125 -63.484375 52.664062 -64.609375 48.5 -64.609375 C 43.90625 -64.609375 40.253906 -63.40625 37.546875 -61 C 34.835938 -58.601562 33.378906 -55.476562 33.171875 -51.625 Z M 33.171875 -51.625 "/></g></g></g><g fill="#ffffff" fill-opacity="1"><g transform="translate(173.492513, 139.885838)"><g><path d="M 9.390625 0 L 9.390625 -80.25 L 37.078125 -80.25 L 37.078125 -68.671875 L 37.390625 -68.671875 C 37.597656 -69.085938 37.9375 -69.609375 38.40625 -70.234375 C 38.875 -70.859375 39.890625 -71.953125 41.453125 -73.515625 C 43.015625 -75.085938 44.679688 -76.5 46.453125 -77.75 C 48.234375 -79 50.53125 -80.117188 53.34375 -81.109375 C 56.15625 -82.097656 59.023438 -82.59375 61.953125 -82.59375 C 64.972656 -82.59375 67.941406 -82.175781 70.859375 -81.34375 C 73.785156 -80.507812 75.925781 -79.675781 77.28125 -78.84375 L 79.46875 -77.59375 L 67.890625 -54.125 C 64.453125 -57.039062 59.65625 -58.5 53.5 -58.5 C 50.164062 -58.5 47.296875 -57.769531 44.890625 -56.3125 C 42.492188 -54.851562 40.800781 -53.082031 39.8125 -51 C 38.820312 -48.914062 38.117188 -47.140625 37.703125 -45.671875 C 37.285156 -44.210938 37.078125 -43.066406 37.078125 -42.234375 L 37.078125 0 Z M 9.390625 0 "/></g></g></g><g fill="#ffffff" fill-opacity="1"><g transform="translate(236.67614, 139.885838)"><g><path d="M 91.984375 -70.234375 C 99.492188 -61.992188 103.25 -51.929688 103.25 -40.046875 C 103.25 -28.160156 99.492188 -18.125 91.984375 -9.9375 C 84.472656 -1.75 74.929688 2.34375 63.359375 2.34375 C 52.722656 2.34375 43.960938 -1.460938 37.078125 -9.078125 L 36.765625 -9.078125 L 36.765625 0 L 9.390625 0 L 9.390625 -134.53125 L 37.078125 -134.53125 L 37.078125 -72.59375 C 43.960938 -79.257812 52.722656 -82.59375 63.359375 -82.59375 C 74.929688 -82.59375 84.472656 -78.472656 91.984375 -70.234375 Z M 68.671875 -26.515625 C 72.117188 -30.003906 73.84375 -34.515625 73.84375 -40.046875 C 73.84375 -45.578125 72.039062 -50.113281 68.4375 -53.65625 C 64.84375 -57.207031 60.382812 -58.984375 55.0625 -58.984375 C 49.851562 -58.984375 45.445312 -57.207031 41.84375 -53.65625 C 38.25 -50.113281 36.453125 -45.578125 36.453125 -40.046875 C 36.453125 -34.617188 38.195312 -30.132812 41.6875 -26.59375 C 45.1875 -23.050781 49.644531 -21.28125 55.0625 -21.28125 C 60.695312 -21.28125 65.234375 -23.023438 68.671875 -26.515625 Z M 68.671875 -26.515625 "/></g></g></g><g fill="#ffffff" fill-opacity="1"><g transform="translate(328.79482, 139.885838)"><g><path d="M 16.96875 -9.546875 C 8.050781 -17.472656 3.59375 -27.640625 3.59375 -40.046875 C 3.59375 -52.453125 8.234375 -62.644531 17.515625 -70.625 C 26.796875 -78.601562 38.269531 -82.59375 51.9375 -82.59375 C 65.394531 -82.59375 76.738281 -78.578125 85.96875 -70.546875 C 95.195312 -62.515625 99.8125 -52.347656 99.8125 -40.046875 C 99.8125 -27.742188 95.300781 -17.601562 86.28125 -9.625 C 77.257812 -1.644531 65.8125 2.34375 51.9375 2.34375 C 37.539062 2.34375 25.882812 -1.617188 16.96875 -9.546875 Z M 38.40625 -53.65625 C 34.8125 -50.113281 33.015625 -45.578125 33.015625 -40.046875 C 33.015625 -34.515625 34.734375 -30.003906 38.171875 -26.515625 C 41.609375 -23.023438 46.144531 -21.28125 51.78125 -21.28125 C 57.207031 -21.28125 61.664062 -23.050781 65.15625 -26.59375 C 68.644531 -30.132812 70.390625 -34.617188 70.390625 -40.046875 C 70.390625 -45.578125 68.59375 -50.113281 65 -53.65625 C 61.40625 -57.207031 57 -58.984375 51.78125 -58.984375 C 46.457031 -58.984375 42 -57.207031 38.40625 -53.65625 Z M 38.40625 -53.65625 "/></g></g></g><g fill="#ffffff" fill-opacity="1"><g transform="translate(417.472572, 139.885838)"><g><path d="M 14.078125 -80.25 L 14.078125 -110.125 L 41.765625 -110.125 L 41.765625 -80.25 L 58.65625 -80.25 L 58.65625 -59.140625 L 41.765625 -59.140625 L 41.765625 -33.640625 C 41.765625 -26.234375 43.851562 -22.53125 48.03125 -22.53125 C 49.070312 -22.53125 50.164062 -22.738281 51.3125 -23.15625 C 52.457031 -23.570312 53.34375 -23.988281 53.96875 -24.40625 L 54.90625 -25.03125 L 61.796875 -2.65625 C 55.847656 0.675781 49.066406 2.34375 41.453125 2.34375 C 36.242188 2.34375 31.757812 1.429688 28 -0.390625 C 24.25 -2.210938 21.40625 -4.660156 19.46875 -7.734375 C 17.539062 -10.816406 16.160156 -14.050781 15.328125 -17.4375 C 14.492188 -20.832031 14.078125 -24.457031 14.078125 -28.3125 L 14.078125 -59.140625 L 2.5 -59.140625 L 2.5 -80.25 Z M 14.078125 -80.25 "/></g></g></g><g fill="#ffffff" fill-opacity="1"><g transform="translate(464.546397, 139.885838)"><g><path d="M 35.515625 -80.25 L 35.515625 -42.078125 C 35.515625 -34.148438 36.710938 -28.519531 39.109375 -25.1875 C 41.503906 -21.851562 45.570312 -20.1875 51.3125 -20.1875 C 57.050781 -20.1875 61.117188 -21.851562 63.515625 -25.1875 C 65.910156 -28.519531 67.109375 -34.148438 67.109375 -42.078125 L 67.109375 -80.25 L 94.796875 -80.25 L 94.796875 -35.359375 C 94.796875 -22.003906 91.328125 -12.378906 84.390625 -6.484375 C 77.460938 -0.597656 66.4375 2.34375 51.3125 2.34375 C 36.1875 2.34375 25.15625 -0.597656 18.21875 -6.484375 C 11.289062 -12.378906 7.828125 -22.003906 7.828125 -35.359375 L 7.828125 -80.25 Z M 35.515625 -80.25 "/></g></g></g><g fill="#ffffff" fill-opacity="1"><g transform="translate(552.442131, 139.885838)"><g><path d="M 27.21875 -33.484375 C 32.226562 -33.484375 36.476562 -31.734375 39.96875 -28.234375 C 43.457031 -24.742188 45.203125 -20.492188 45.203125 -15.484375 C 45.203125 -10.585938 43.457031 -6.390625 39.96875 -2.890625 C 36.476562 0.597656 32.226562 2.34375 27.21875 2.34375 C 22.320312 2.34375 18.125 0.597656 14.625 -2.890625 C 11.132812 -6.390625 9.390625 -10.585938 9.390625 -15.484375 C 9.390625 -20.492188 11.132812 -24.742188 14.625 -28.234375 C 18.125 -31.734375 22.320312 -33.484375 27.21875 -33.484375 Z M 27.21875 -33.484375 "/></g></g></g></g></g></svg>